<?xml version="1.0" encoding="UTF-8" standalone="no"?>
<svg
   version="1.0"
   width="450pt"
   height="150pt"
   viewBox="0 0 450 150"
   preserveAspectRatio="xMidYMid"
   id="svg19"
   sodipodi:docname="logo.svg"
   inkscape:version="1.3 (0e150ed, 2023-07-21)"
   xmlns:inkscape="http://www.inkscape.org/namespaces/inkscape"
   xmlns:sodipodi="http://sodipodi.sourceforge.net/DTD/sodipodi-0.dtd"
   xmlns="http://www.w3.org/2000/svg"
   xmlns:svg="http://www.w3.org/2000/svg">
  <defs
     id="defs19" />
  <sodipodi:namedview
     id="namedview19"
     pagecolor="#ffffff"
     bordercolor="#000000"
     borderopacity="0.25"
     inkscape:showpageshadow="2"
     inkscape:pageopacity="0.0"
     inkscape:pagecheckerboard="0"
     inkscape:deskcolor="#d1d1d1"
     inkscape:document-units="pt"
     inkscape:zoom="0.95436538"
     inkscape:cx="333.72962"
     inkscape:cy="133.59663"
     inkscape:window-width="1440"
     inkscape:window-height="872"
     inkscape:window-x="0"
     inkscape:window-y="28"
     inkscape:window-maximized="0"
     inkscape:current-layer="svg19" />
  <g
     transform="matrix(0.1,0,0,-0.1,-32.758067,325.74518)"
     fill="#000000"
     stroke="none"
     id="g19">
    <path
       d="m 639,3032 c -59,-30 -111,-95 -129,-160 -6,-22 -10,-176 -10,-374 0,-312 1,-341 20,-391 40,-106 134,-166 260,-167 91,0 157,27 211,87 67,75 70,96 67,495 -3,342 -4,354 -25,394 -55,103 -127,143 -254,144 -76,0 -94,-4 -140,-28 z m 212,-43 c 120,-41 183,-188 130,-305 -25,-55 -92,-110 -152,-124 -134,-32 -268,75 -269,215 0,154 147,262 291,214 z"
       id="path1" />
    <path
       d="m 1220,2685 c 0,-3 18,-30 40,-60 36,-49 40,-60 40,-115 0,-53 2,-60 20,-60 18,0 20,7 20,53 0,43 6,62 28,93 16,21 36,51 46,67 18,27 18,27 -5,27 -17,0 -33,-13 -53,-42 l -29,-41 -36,42 c -20,23 -44,41 -53,41 -10,0 -18,-2 -18,-5 z"
       id="path2" />
    <path
       d="m 1504,2671 c -72,-44 -65,-175 12,-209 42,-20 90,-14 123,13 90,76 44,215 -71,215 -18,0 -47,-9 -64,-19 z m 129,-63 c 16,-33 17,-40 3,-72 -26,-62 -106,-62 -132,0 -27,64 6,117 70,112 36,-3 43,-8 59,-40 z"
       id="path3" />
    <path
       d="m 1732,2589 c 3,-92 5,-103 27,-120 34,-28 96,-25 126,6 23,22 25,32 25,120 0,88 -1,95 -20,95 -18,0 -20,-7 -20,-88 0,-95 -7,-112 -50,-112 -43,0 -50,17 -50,112 0,83 -1,88 -21,88 -20,0 -21,-4 -17,-101 z"
       id="path4" />
    <path
       d="m 1968,2684 c -5,-4 -8,-58 -8,-121 0,-106 1,-113 20,-113 17,0 20,7 20,50 0,42 3,50 19,50 13,0 25,-15 40,-50 15,-36 27,-50 41,-50 24,0 24,-2 0,56 l -21,47 21,19 c 26,24 26,70 0,93 -21,19 -119,33 -132,19 z m 100,-43 c 8,-5 12,-17 10,-27 -2,-14 -13,-20 -41,-22 -35,-3 -37,-2 -37,27 0,27 3,31 28,31 15,0 33,-4 40,-9 z"
       id="path5" />
    <path
       d="m 2170,2570 v -120 h 40 c 82,0 130,45 130,121 0,75 -52,119 -142,119 h -28 z m 93,69 c 31,-16 37,-28 37,-71 0,-45 -28,-78 -65,-78 -25,0 -25,1 -25,80 0,86 6,93 53,69 z"
       id="path6" />
    <path
       d="m 2390,2570 v -120 h 80 c 73,0 80,2 80,20 0,18 -7,20 -60,20 h -60 v 30 c 0,29 1,30 50,30 43,0 50,3 50,20 0,17 -7,20 -50,20 -49,0 -50,1 -50,30 v 30 h 60 c 53,0 60,2 60,20 0,18 -7,20 -80,20 h -80 z"
       id="path7" />
    <path
       d="m 2570,2683 c 0,-17 83,-223 90,-223 6,0 90,207 90,223 0,4 -9,7 -19,7 -15,0 -25,-16 -43,-65 -12,-36 -25,-65 -29,-65 -3,0 -16,29 -28,65 -18,49 -28,65 -42,65 -10,0 -19,-3 -19,-7 z"
       id="path8" />
    <path
       d="m 2780,2570 c 0,-113 1,-120 20,-120 19,0 20,7 20,120 0,113 -1,120 -20,120 -19,0 -20,-7 -20,-120 z"
       id="path9" />
    <path
       d="m 2928,2675 c -73,-41 -76,-160 -6,-209 47,-33 168,-7 137,30 -8,10 -16,11 -29,4 -82,-44 -161,60 -95,125 26,27 73,33 93,13 10,-9 16,-9 28,3 13,14 13,17 -1,29 -24,20 -96,23 -127,5 z"
       id="path10" />
    <path
       d="m 3110,2570 v -120 h 80 c 73,0 80,2 80,20 0,18 -7,20 -60,20 h -60 v 30 c 0,29 1,30 50,30 43,0 50,3 50,20 0,17 -7,20 -50,20 -49,0 -50,1 -50,30 v 30 h 60 c 53,0 60,2 60,20 0,18 -7,20 -80,20 h -80 z"
       id="path11" />
    <path
       d="m 3418,2673 c -34,-21 -48,-53 -48,-108 0,-129 184,-159 221,-35 16,51 0,110 -38,139 -32,26 -97,27 -135,4 z m 121,-49 c 43,-55 11,-134 -55,-134 -46,0 -74,29 -74,78 0,55 23,82 70,82 30,0 43,-6 59,-26 z"
       id="path12" />
    <path
       d="m 3647,2683 c -4,-3 -7,-57 -7,-120 0,-106 1,-113 20,-113 17,0 19,8 22,83 l 3,82 58,-82 c 39,-55 65,-83 78,-83 18,0 19,8 19,120 0,113 -1,120 -20,120 -17,0 -19,-8 -22,-81 l -3,-81 -55,81 c -50,73 -75,93 -93,74 z"
       id="path13" />
    <path
       d="m 3900,2571 v -121 h 60 c 53,0 60,2 60,20 0,17 -7,20 -40,20 h -39 l -3,97 c -3,84 -6,98 -20,101 -16,3 -18,-8 -18,-117 z"
       id="path14" />
    <path
       d="m 4070,2570 c 0,-113 1,-120 20,-120 19,0 20,7 20,120 0,113 -1,120 -20,120 -19,0 -20,-7 -20,-120 z"
       id="path15" />
    <path
       d="m 4160,2570 c 0,-113 1,-120 20,-120 17,0 19,8 22,82 l 3,83 58,-83 c 39,-56 64,-82 77,-82 19,0 20,7 20,120 0,113 -1,120 -20,120 -17,0 -19,-8 -22,-82 l -3,-83 -58,83 c -39,56 -64,82 -77,82 -19,0 -20,-7 -20,-120 z"
       id="path16" />
    <path
       d="m 4410,2570 v -120 h 80 c 73,0 80,2 80,20 0,18 -7,20 -60,20 h -60 v 30 c 0,29 1,30 50,30 43,0 50,3 50,20 0,17 -7,20 -50,20 -49,0 -50,1 -50,30 v 30 h 60 c 53,0 60,2 60,20 0,18 -7,20 -80,20 h -80 z"
       id="path17" />
    <path
       d="m 3296,2475 c -3,-9 1,-18 10,-22 19,-7 39,11 30,26 -10,16 -33,13 -40,-4 z"
       id="path18" />
    <path
       d="m 1220,2285 v -35 l 1693,2 1692,3 3,33 3,32 H 2916 1220 Z"
       id="path19" />
  </g>
</svg>
